REM DIRINDEX 1\2,1\3,1\4
REM DIRNAME folder01,folder02,folder03,folder04
TITLE ""
FILE "119 119_TOEFL_3900.mp3" MP3
  TRACK 01 AUDIO
    TITLE "2:cjc151_5160"
    INDEX 01 00:00:00
  TRACK 02 AUDIO
    TITLE "0:"
    INDEX 01 00:01:38
  TRACK 03 AUDIO
    TITLE "3:cjc151_5161"
    INDEX 01 00:03:19
  TRACK 04 AUDIO
    TITLE "0:"
    INDEX 01 00:08:11
  TRACK 05 AUDIO
    TITLE "2:cjc151_5162"
    INDEX 01 00:09:65
  TRACK 06 AUDIO
    TITLE "0:"
    INDEX 01 00:11:31
  TRACK 07 AUDIO
    TITLE "3:cjc151_5163"
    INDEX 01 00:13:10
  TRACK 08 AUDIO
    TITLE "0:"
    INDEX 01 00:16:63
  TRACK 09 AUDIO
    TITLE "2:cjc151_5164"
    INDEX 01 00:18:42
  TRACK 10 AUDIO
    TITLE "0:"
    INDEX 01 00:19:52
  TRACK 11 AUDIO
    TITLE "3:cjc151_5165"
    INDEX 01 00:21:29
  TRACK 12 AUDIO
    TITLE "0:"
    INDEX 01 00:26:24
  TRACK 13 AUDIO
    TITLE "2:cjc151_5166"
    INDEX 01 00:28:02
  TRACK 14 AUDIO
    TITLE "0:"
    INDEX 01 00:29:05
  TRACK 15 AUDIO
    TITLE "3:cjc151_5167"
    INDEX 01 00:30:59
  TRACK 16 AUDIO
    TITLE "0:"
    INDEX 01 00:35:27
  TRACK 17 AUDIO
    TITLE "2:cjc151_5168"
    INDEX 01 00:37:07
  TRACK 18 AUDIO
    TITLE "0:"
    INDEX 01 00:38:22
  TRACK 19 AUDIO
    TITLE "3:cjc151_5169"
    INDEX 01 00:40:01
  TRACK 20 AUDIO
    TITLE "0:"
    INDEX 01 00:44:42
  TRACK 21 AUDIO
    TITLE "2:cjc151_5170"
    INDEX 01 00:46:19
  TRACK 22 AUDIO
    TITLE "0:"
    INDEX 01 00:47:38
  TRACK 23 AUDIO
    TITLE "3:cjc151_5171"
    INDEX 01 00:49:16
  TRACK 24 AUDIO
    TITLE "0:"
    INDEX 01 00:53:41
  TRACK 25 AUDIO
    TITLE "2:cjc151_5172"
    INDEX 01 00:55:18
  TRACK 26 AUDIO
    TITLE "0:"
    INDEX 01 00:56:31
  TRACK 27 AUDIO
    TITLE "3:cjc151_5173"
    INDEX 01 00:58:09
  TRACK 28 AUDIO
    TITLE "0:"
    INDEX 01 01:02:05
  TRACK 29 AUDIO
    TITLE "2:cjc151_5174"
    INDEX 01 01:03:59
  TRACK 30 AUDIO
    TITLE "0:"
    INDEX 01 01:05:11
  TRACK 31 AUDIO
    TITLE "3:cjc151_5175"
    INDEX 01 01:06:63
  TRACK 32 AUDIO
    TITLE "0:"
    INDEX 01 01:09:61
  TRACK 33 AUDIO
    TITLE "2:cjc151_5176"
    INDEX 01 01:11:35
  TRACK 34 AUDIO
    TITLE "0:"
    INDEX 01 01:12:46
  TRACK 35 AUDIO
    TITLE "3:cjc151_5177"
    INDEX 01 01:14:27
  TRACK 36 AUDIO
    TITLE "0:"
    INDEX 01 01:17:59
  TRACK 37 AUDIO
    TITLE "2:cjc151_5178"
    INDEX 01 01:19:38
  TRACK 38 AUDIO
    TITLE "0:"
    INDEX 01 01:20:38
  TRACK 39 AUDIO
    TITLE "3:cjc151_5179"
    INDEX 01 01:22:15
  TRACK 40 AUDIO
    TITLE "0:"
    INDEX 01 01:25:57
  TRACK 41 AUDIO
    TITLE "2:cjc151_5180"
    INDEX 01 01:27:36
  TRACK 42 AUDIO
    TITLE "0:"
    INDEX 01 01:28:51
  TRACK 43 AUDIO
    TITLE "3:cjc151_5181"
    INDEX 01 01:30:28
  TRACK 44 AUDIO
    TITLE "0:"
    INDEX 01 01:34:28
  TRACK 45 AUDIO
    TITLE "2:cjc151_5182"
    INDEX 01 01:36:05
  TRACK 46 AUDIO
    TITLE "0:"
    INDEX 01 01:37:28
  TRACK 47 AUDIO
    TITLE "3:cjc151_5183"
    INDEX 01 01:39:06
  TRACK 48 AUDIO
    TITLE "0:"
    INDEX 01 01:43:41
  TRACK 49 AUDIO
    TITLE "2:cjc151_5184"
    INDEX 01 01:45:20
  TRACK 50 AUDIO
    TITLE "0:"
    INDEX 01 01:46:31
  TRACK 51 AUDIO
    TITLE "3:cjc151_5185"
    INDEX 01 01:48:11
  TRACK 52 AUDIO
    TITLE "0:"
    INDEX 01 01:52:16
  TRACK 53 AUDIO
    TITLE "2:cjc151_5186"
    INDEX 01 01:53:70
  TRACK 54 AUDIO
    TITLE "0:"
    INDEX 01 01:55:07
  TRACK 55 AUDIO
    TITLE "3:cjc151_5187"
    INDEX 01 01:56:61
  TRACK 56 AUDIO
    TITLE "0:"
    INDEX 01 02:01:07
  TRACK 57 AUDIO
    TITLE "2:cjc151_5188"
    INDEX 01 02:02:62
  TRACK 58 AUDIO
    TITLE "0:"
    INDEX 01 02:03:69
  TRACK 59 AUDIO
    TITLE "3:cjc151_5189"
    INDEX 01 02:05:46
  TRACK 60 AUDIO
    TITLE "0:"
    INDEX 01 02:09:48
  TRACK 61 AUDIO
    TITLE "2:cjc151_5190"
    INDEX 01 02:11:25
  TRACK 62 AUDIO
    TITLE "0:"
    INDEX 01 02:12:31
  TRACK 63 AUDIO
    TITLE "3:cjc151_5191"
    INDEX 01 02:14:08
  TRACK 64 AUDIO
    TITLE "0:"
    INDEX 01 02:17:61
  TRACK 65 AUDIO
    TITLE "2:cjc151_5192"
    INDEX 01 02:19:39
  TRACK 66 AUDIO
    TITLE "0:"
    INDEX 01 02:20:34
  TRACK 67 AUDIO
    TITLE "3:cjc151_5193"
    INDEX 01 02:22:13
  TRACK 68 AUDIO
    TITLE "0:"
    INDEX 01 02:25:55
  TRACK 69 AUDIO
    TITLE "2:cjc151_5194"
    INDEX 01 02:27:34
  TRACK 70 AUDIO
    TITLE "0:"
    INDEX 01 02:28:57
  TRACK 71 AUDIO
    TITLE "3:cjc151_5195"
    INDEX 01 02:30:36
  TRACK 72 AUDIO
    TITLE "0:"
    INDEX 01 02:34:62
  TRACK 73 AUDIO
    TITLE "2:cjc151_5196"
    INDEX 01 02:36:41
  TRACK 74 AUDIO
    TITLE "0:"
    INDEX 01 02:37:64
  TRACK 75 AUDIO
    TITLE "3:cjc151_5197"
    INDEX 01 02:39:39
  TRACK 76 AUDIO
    TITLE "0:"
    INDEX 01 02:43:10
  TRACK 77 AUDIO
    TITLE "2:cjc151_5198"
    INDEX 01 02:44:64
  TRACK 78 AUDIO
    TITLE "0:"
    INDEX 01 02:46:00
  TRACK 79 AUDIO
    TITLE "3:cjc151_5199"
    INDEX 01 02:47:54
  TRACK 80 AUDIO
    TITLE "0:"
    INDEX 01 02:51:58
  TRACK 81 AUDIO
    TITLE "2:cjc151_5200"
    INDEX 01 02:53:35
  TRACK 82 AUDIO
    TITLE "0:"
    INDEX 01 02:54:68
  TRACK 83 AUDIO
    TITLE "3:cjc151_5201"
    INDEX 01 02:56:46
  TRACK 84 AUDIO
    TITLE "0:"
    INDEX 01 03:01:15
  TRACK 85 AUDIO
    TITLE "2:cjc151_5202"
    INDEX 01 03:02:68
  TRACK 86 AUDIO
    TITLE "0:"
    INDEX 01 03:04:18
  TRACK 87 AUDIO
    TITLE "3:cjc151_5203"
    INDEX 01 03:05:72
  TRACK 88 AUDIO
    TITLE "0:"
    INDEX 01 03:09:64
